<svg width="24" height="25" viewBox="0 0 24 25" fill="none" xmlns="http://www.w3.org/2000/svg">
<path fill-rule="evenodd" clip-rule="evenodd" d="M6.99933 3.75C7.41354 3.75 7.74933 4.08579 7.74933 4.5V6.16763C10.5771 5.9158 13.4216 5.9158 16.2493 6.16763V4.5C16.2493 4.08579 16.5851 3.75 16.9993 3.75C17.4135 3.75 17.7493 4.08579 17.7493 4.5V6.31644C19.2424 6.52754 20.4219 7.70847 20.6216 9.21484L20.7081 9.86779C21.0722 12.6141 21.0407 15.3984 20.6148 18.1359C20.4037 19.4919 19.3021 20.5335 17.9363 20.6681L16.7433 20.7858C13.5883 21.0969 10.4103 21.0969 7.25525 20.7858L6.06225 20.6681C4.69651 20.5335 3.59485 19.4919 3.38384 18.1359C2.95788 15.3984 2.92644 12.6141 3.29048 9.86779L3.37703 9.21484C3.57671 7.70845 4.75626 6.52751 6.24933 6.31643V4.5C6.24933 4.08579 6.58511 3.75 6.99933 3.75ZM7.44449 7.7028C10.4737 7.40408 13.5249 7.40408 16.5541 7.7028L17.4596 7.7921C18.3263 7.87757 19.0201 8.54854 19.1346 9.41194L19.2211 10.0649C19.2514 10.293 19.2787 10.5214 19.3032 10.75H4.69539C4.71987 10.5214 4.74723 10.293 4.77747 10.0649L4.86402 9.41194C4.97847 8.54854 5.67229 7.87757 6.53904 7.7921L7.44449 7.7028ZM4.57616 12.25C4.47798 14.1381 4.57471 16.0332 4.866 17.9052C4.97184 18.5854 5.52442 19.1078 6.20946 19.1754L7.40246 19.293C10.4596 19.5945 13.539 19.5945 16.5961 19.293L17.7891 19.1754C18.4742 19.1078 19.0268 18.5854 19.1326 17.9052C19.4239 16.0332 19.5206 14.1381 19.4224 12.25H4.57616Z" fill="#262B2E"/>
<circle cx="7.75" cy="14.25" r="0.75" fill="#262B2E"/>
<circle cx="7.75" cy="17.25" r="0.75" fill="#262B2E"/>
<circle cx="10.75" cy="14.25" r="0.75" fill="#262B2E"/>
<circle cx="10.75" cy="17.25" r="0.75" fill="#262B2E"/>
<circle cx="13.75" cy="14.25" r="0.75" fill="#262B2E"/>
<circle cx="13.75" cy="17.25" r="0.75" fill="#262B2E"/>
<circle cx="16.75" cy="14.25" r="0.75" fill="#262B2E"/>
</svg>
