<svg width="24" height="25" viewBox="0 0 24 25" fill="none" xmlns="http://www.w3.org/2000/svg">
<path d="M12.75 7.5C12.75 7.08579 12.4142 6.75 12 6.75C11.5858 6.75 11.25 7.08579 11.25 7.5V12.5C11.25 12.7586 11.3832 12.9989 11.6025 13.136L14.6025 15.011C14.9538 15.2305 15.4165 15.1238 15.636 14.7725C15.8555 14.4212 15.7488 13.9585 15.3975 13.739L12.75 12.0843V7.5Z" fill="#262B2E"/>
<path fill-rule="evenodd" clip-rule="evenodd" d="M12 3.75C7.16751 3.75 3.25 7.66751 3.25 12.5C3.25 17.3325 7.16751 21.25 12 21.25C16.8325 21.25 20.75 17.3325 20.75 12.5C20.75 7.66751 16.8325 3.75 12 3.75ZM4.75 12.5C4.75 8.49594 7.99594 5.25 12 5.25C16.0041 5.25 19.25 8.49594 19.25 12.5C19.25 16.5041 16.0041 19.75 12 19.75C7.99594 19.75 4.75 16.5041 4.75 12.5Z" fill="#262B2E"/>
</svg>
