<svg width="37" height="35" viewBox="0 0 37 35" fill="none" xmlns="http://www.w3.org/2000/svg">
<path fill-rule="evenodd" clip-rule="evenodd" d="M8.72727 0.447205C9.54897 0.447205 10.2151 1.11332 10.2151 1.93502V5.24317C15.8246 4.74361 21.4674 4.74362 27.077 5.24319V1.93502C27.077 1.11332 27.7431 0.447205 28.5648 0.447205C29.3865 0.447205 30.0526 1.11332 30.0526 1.93502V5.53837C33.0144 5.95716 35.3543 8.29982 35.7504 11.2881L35.9221 12.5834C36.6442 18.0314 36.5819 23.5548 35.7369 28.9851C35.3183 31.6752 33.1329 33.7414 30.4236 34.0086L28.057 34.242C21.7981 34.8592 15.4938 34.8592 9.23497 34.242L6.86834 34.0086C4.15905 33.7414 1.97364 31.6752 1.55505 28.9851C0.710052 23.5548 0.647681 18.0314 1.36984 12.5834L1.54153 11.2881C1.93764 8.29978 4.27758 5.95709 7.23946 5.53835V1.93502C7.23946 1.11332 7.90558 0.447205 8.72727 0.447205ZM9.61037 8.28858C15.6195 7.69598 21.6724 7.69598 27.6816 8.28858L29.4778 8.46571C31.1972 8.63527 32.5735 9.96631 32.8006 11.6791L32.9723 12.9744C33.0323 13.4269 33.0865 13.88 33.1351 14.3335H4.15684C4.2054 13.88 4.25968 13.4269 4.31966 12.9744L4.49136 11.6791C4.71839 9.96631 6.09476 8.63527 7.81418 8.46571L9.61037 8.28858ZM3.92031 17.3091C3.72555 21.0546 3.91743 24.814 4.49529 28.5276C4.70525 29.8769 5.80142 30.9133 7.16037 31.0473L9.52699 31.2807C15.5916 31.8788 21.7003 31.8788 27.7649 31.2807L30.1316 31.0473C31.4905 30.9133 32.5867 29.8769 32.7966 28.5276C33.3745 24.814 33.5664 21.0546 33.3716 17.3091H3.92031Z" fill="white"/>
</svg>
