<svg width="38" height="38" viewBox="0 0 38 38" fill="none" xmlns="http://www.w3.org/2000/svg">
<rect width="38" height="38" rx="19" fill="#FF5000"/>
<path fill-rule="evenodd" clip-rule="evenodd" d="M25.4823 26.7902L25.483 26.7885L25.5004 26.745L28.4992 11.6259V11.5768C28.4992 11.2001 28.36 10.8713 28.0571 10.674C27.792 10.5013 27.4873 10.489 27.2736 10.5053C27.0476 10.5224 26.8344 10.5788 26.6869 10.6258C26.611 10.6499 26.5475 10.6732 26.502 10.6908C26.4792 10.6997 26.4608 10.7072 26.4473 10.7128L26.4341 10.7183L9.71429 17.2772L9.70968 17.2789C9.70065 17.2822 9.68871 17.2866 9.67429 17.2923C9.64553 17.3034 9.60639 17.3195 9.56041 17.3403C9.47013 17.3812 9.3454 17.4444 9.21889 17.531C9.00404 17.6781 8.59493 18.0264 8.66401 18.5787C8.72123 19.0361 9.03653 19.3266 9.2491 19.477C9.36305 19.5576 9.47206 19.6157 9.55189 19.6538C9.59234 19.673 9.6267 19.6878 9.65228 19.6982C9.66511 19.7034 9.67584 19.7076 9.68414 19.7107L9.69476 19.7147L9.70156 19.7172L12.6268 20.702C12.6169 20.8856 12.6351 21.0727 12.6838 21.2573L14.1491 26.8157C14.3228 27.4748 14.919 27.9339 15.6006 27.9334C16.2115 27.9329 16.7534 27.5633 16.9836 27.0119L19.2712 24.5658L23.2002 27.5781L23.2561 27.6025C23.6131 27.7582 23.9466 27.8076 24.2515 27.7659C24.556 27.7243 24.798 27.5966 24.9797 27.4512C25.1586 27.3081 25.2812 27.1466 25.3582 27.025C25.3974 26.9633 25.4266 26.909 25.4469 26.8681C25.457 26.8476 25.465 26.8302 25.4711 26.8167L25.4786 26.7993L25.4813 26.7928L25.4823 26.7902ZM14.1342 20.875C14.1009 20.7486 14.1532 20.6153 14.2635 20.5452L24.1855 14.2443C24.1855 14.2443 24.7691 13.89 24.7482 14.2443C24.7482 14.2443 24.8524 14.3069 24.5396 14.5986C24.243 14.8757 17.468 21.4167 16.7824 22.0786C16.7429 22.1168 16.7192 22.1607 16.7053 22.2139L15.5995 26.4334L14.1342 20.875Z" fill="white"/>
</svg>
