<svg width="190" height="48" viewBox="0 0 190 48" fill="none" xmlns="http://www.w3.org/2000/svg">
<path d="M82.2617 3.3541C82.2617 4.03048 82.0166 4.36875 81.5302 4.36875H74.6187V21.0163C74.6187 21.3772 74.027 21.5572 72.8439 21.5572C71.7104 21.5572 71.1403 21.3772 71.1403 21.0163V4.36875H64.2683C63.7039 4.36875 63.4249 3.9964 63.4249 3.24708C63.4249 2.48723 63.7039 2.10453 64.2683 2.10453H81.5302C82.0166 2.10453 82.2617 2.52131 82.2617 3.3541ZM89.7827 20.7462C89.7827 21.2645 89.2015 21.5241 88.0463 21.5241C86.8847 21.5241 86.3044 21.2645 86.3044 20.7462V2.8814C86.3044 2.24469 86.9467 1.92361 88.2247 1.92361C89.2633 1.92361 89.7827 2.24469 89.7827 2.8814V20.7462ZM115.476 20.5833C115.548 20.6449 115.587 20.7122 115.587 20.7804C115.587 21.0115 115.324 21.1915 114.811 21.3213C114.431 21.417 114.046 21.4672 113.666 21.4672C112.578 21.4672 111.651 21.1745 110.886 20.5833L100.876 12.9459L98.1958 14.8776V20.8534C98.1958 21.2645 97.5713 21.4672 96.3148 21.4672C95.2481 21.4672 94.7184 21.2645 94.7184 20.8534V2.8416C94.7184 2.33481 95.3213 2.08176 96.527 2.08176C97.638 2.08176 98.1958 2.33482 98.1958 2.84733V11.6054L110.132 3.00547C110.993 2.39166 111.986 2.08176 113.108 2.08176C113.443 2.08176 113.811 2.12636 114.219 2.21156C114.75 2.3291 115.012 2.49296 115.012 2.68439C115.012 2.73457 114.973 2.79142 114.889 2.85292L103.316 11.2341L115.476 20.5833ZM139.124 15.858C139.124 17.0631 138.627 18.1335 137.634 19.0619C136.807 19.8227 135.757 20.4137 134.479 20.8362C132.955 21.3431 131.263 21.597 129.399 21.597C124.721 21.597 121.471 20.5833 119.64 18.5551C118.981 17.818 118.596 17.0631 118.49 16.291C118.456 16.0153 118.697 15.8011 119.227 15.661C119.595 15.5482 119.969 15.4971 120.338 15.4971C121.209 15.4971 121.688 15.6884 121.773 16.0778C122.046 17.2829 123.191 18.1781 125.201 18.753C126.552 19.1302 127.897 19.3157 129.237 19.3157C132.023 19.3157 133.955 18.7806 135.032 17.7053C135.524 17.2099 135.769 16.6632 135.769 16.0607C135.769 14.8274 134.741 13.9264 132.681 13.3628C131.856 13.1316 130.214 12.8048 127.746 12.3832C125.608 12.0223 123.995 11.6338 122.922 11.2284C120.433 10.2593 119.188 8.87429 119.188 7.06014C119.188 5.91665 119.662 4.90867 120.606 4.0418C121.393 3.338 122.397 2.80273 123.62 2.4304C125.066 1.99749 126.674 1.77771 128.444 1.77771C132.548 1.77771 135.418 2.67867 137.042 4.47577C137.7 5.20713 138.036 5.96777 138.047 6.75597C138.047 7.21257 137.399 7.4438 136.11 7.4438C135.283 7.4438 134.814 7.2742 134.709 6.93688C134.099 4.98256 132.062 4.00214 128.59 4.00214C126.998 4.00214 125.675 4.1877 124.626 4.56576C123.235 5.0555 122.543 5.83238 122.543 6.88003C122.543 7.86058 123.297 8.60326 124.804 9.12722C125.413 9.32996 126.753 9.60086 128.823 9.93805C131.638 10.4118 133.575 10.8229 134.635 11.1715C137.628 12.1747 139.124 13.7341 139.124 15.858ZM165.481 21.0504C165.492 21.0902 165.498 21.1176 165.498 21.1461C165.498 21.2872 165.229 21.4056 164.694 21.49C164.264 21.5629 163.868 21.597 163.51 21.597C162.455 21.597 161.79 21.417 161.517 21.056L157.855 13.9037H148.291L144.813 20.9832C144.635 21.3431 143.942 21.5241 142.73 21.5241C141.536 21.5241 140.999 21.3431 141.117 20.9832L150.736 2.8814C151.082 2.37448 151.814 2.12063 152.941 2.12063C154.159 2.12063 154.913 2.37448 155.203 2.8814L165.481 21.0504ZM156.855 11.8195L152.975 5.10568L149.391 11.8195H156.855ZM189.08 20.6165C189.08 21.1015 188.772 21.3431 188.164 21.3431C187.014 21.3431 185.641 20.555 184.038 18.9719L171.695 6.863V20.4933C171.695 20.786 171.437 21.0163 170.924 21.1973C170.539 21.3431 170.165 21.417 169.79 21.417C168.836 21.417 168.355 21.1073 168.355 20.4933V2.75161C168.355 2.23338 168.696 1.97474 169.377 1.97474C170.494 1.97474 171.633 2.54887 172.794 3.69223L185.741 16.4936V2.75161C185.741 2.16043 186.272 1.86771 187.338 1.86771C188.499 1.86771 189.08 2.16043 189.08 2.75161V20.6165ZM73.2017 32.5189C71.1094 32.5189 69.4135 32.9537 68.1242 33.8196C66.617 34.8455 65.861 36.366 65.861 38.3857C65.861 41.0099 67.0696 42.7539 69.4821 43.6198C70.6653 44.0555 71.9161 44.2706 73.244 44.2706C74.214 44.2706 75.2302 44.1418 76.2894 43.8831C77.4416 43.5989 78.3854 43.2201 79.116 42.7501V39.7177H73.2017C72.4975 39.7177 72.1471 39.4374 72.1471 38.8727C72.1471 38.2825 72.5228 37.9859 73.274 37.9859H81.7379V45.559C81.674 46.0024 81.2684 46.2222 80.5161 46.2222C79.6756 46.2222 79.223 46.0024 79.1582 45.559V44.947C77.3007 45.6575 75.3794 46.0156 73.3943 46.0156C71.5743 46.0156 69.9131 45.7608 68.4143 45.2531C66.6001 44.6287 65.2459 43.6804 64.3492 42.4139C63.5256 41.2419 63.1152 39.9365 63.1152 38.4985C63.1152 36.9648 63.5546 35.5902 64.4345 34.371C65.2845 33.1906 66.4329 32.3209 67.8762 31.7563C69.4135 31.1576 71.1865 30.8562 73.1885 30.8562C76.2424 30.8562 78.4793 31.5061 79.8972 32.8077C80.2307 33.1129 80.4955 33.4236 80.6954 33.7333C80.7518 33.8196 80.7772 33.919 80.7772 34.0394C80.7772 34.3368 80.6062 34.5737 80.2692 34.7593C79.9875 34.9185 79.6878 34.9962 79.3761 34.9962C78.992 34.9962 78.7235 34.8835 78.5695 34.6646C77.5449 33.2341 75.7551 32.5189 73.2017 32.5189ZM107.662 35.3277C107.662 37.068 106.807 38.2957 105.095 39.0148C106.586 39.6959 107.332 40.6518 107.332 41.8842V45.5419C107.332 45.882 106.906 46.0544 106.056 46.0544C105.215 46.0544 104.77 45.882 104.723 45.5419V41.9828C104.723 41.6901 104.549 41.333 104.202 40.9104C103.596 40.1696 102.512 39.7992 100.936 39.7992C100.918 39.7992 100.901 39.7992 100.88 39.7992C100.863 39.7992 100.854 39.7992 100.854 39.7992C100.616 39.7992 100.372 39.7992 100.125 39.7992H95.7901V45.5419C95.7901 45.882 95.3374 46.0544 94.4321 46.0544C93.5654 46.0544 93.1297 45.882 93.1297 45.5419V31.1054H99.8938C101.192 31.1054 102.212 31.1528 102.955 31.2437C104.92 31.4939 106.291 32.1911 107.059 33.3412C107.461 33.9409 107.662 34.6039 107.662 35.3277ZM104.916 35.4092C104.916 34.7631 104.681 34.2166 104.215 33.7637C103.797 33.3591 103.255 33.092 102.596 32.9622C102.157 32.8807 101.329 32.8372 100.112 32.8372H95.7901V38.0674H100.167C103.332 38.0674 104.916 37.1798 104.916 35.4092ZM137.791 38.4549C137.791 39.9971 137.356 41.3547 136.488 42.5256C135.656 43.6633 134.512 44.5208 133.055 45.1024C131.548 45.7096 129.917 46.0156 128.17 46.0156C126.45 46.0156 124.882 45.7352 123.464 45.1706C121.808 44.5245 120.552 43.5639 119.702 42.2935C118.933 41.1387 118.549 39.9156 118.549 38.6236C118.549 36.0127 119.54 34.0175 121.526 32.6439C123.247 31.4417 125.467 30.843 128.183 30.843C129.895 30.843 131.454 31.1149 132.863 31.6616C134.503 32.2858 135.745 33.2293 136.595 34.4837C137.393 35.6641 137.791 36.9904 137.791 38.4549ZM135.045 38.4425C135.045 35.9691 133.96 34.2336 131.791 33.2379C130.733 32.7605 129.533 32.5189 128.195 32.5189C126.095 32.5189 124.442 33.0096 123.243 33.9883C121.944 35.0474 121.295 36.6028 121.295 38.6492C121.295 40.5229 121.996 41.9705 123.396 42.9955C124.639 43.9002 126.227 44.3521 128.158 44.3521C130.168 44.3521 131.787 43.8831 133.013 42.9396C134.366 41.8966 135.045 40.3979 135.045 38.4425ZM164.568 39.5794C164.568 40.9236 164.393 41.9828 164.048 42.7501C163.061 44.9252 160.61 46.0156 156.707 46.0156C152.966 46.0156 150.567 45.0938 149.516 43.2456C149.003 42.3409 148.748 41.1169 148.748 39.5794V31.7999C148.658 31.2911 149.068 31.0373 149.982 31.0373C150.934 31.0373 151.408 31.2911 151.408 31.7999V39.5623C151.408 40.6348 151.506 41.423 151.698 41.9316C152.283 43.491 153.876 44.2706 156.473 44.2706C158.633 44.2706 160.11 43.8699 160.905 43.0647C161.575 42.3921 161.908 41.2249 161.908 39.5623V31.7951C161.908 31.3167 162.378 31.0761 163.322 31.0761C164.154 31.0761 164.568 31.3167 164.568 31.7951V39.5794ZM190.88 35.3401C190.88 38.3128 188.369 39.7992 183.348 39.7992H179.145V45.2701C179.073 45.7134 178.701 45.9332 178.035 45.9332C177.74 45.9332 177.42 45.8735 177.075 45.7522C176.643 45.6149 176.447 45.4558 176.485 45.2701V31.1054H183.113C184.411 31.1054 185.431 31.1528 186.174 31.2437C188.139 31.4939 189.509 32.1958 190.278 33.3506C190.679 33.9494 190.88 34.6124 190.88 35.3401ZM188.134 35.4092C188.134 34.7631 187.899 34.2166 187.433 33.7637C187.016 33.3591 186.473 33.092 185.816 32.9622C185.376 32.8807 184.547 32.8372 183.33 32.8372H179.145V38.0674H183.386C186.55 38.0674 188.134 37.1798 188.134 35.4092Z" fill="white"/>
<path fill-rule="evenodd" clip-rule="evenodd" d="M48.8879 38.6834V42.0573C48.8879 45.4573 46.1213 48.2387 42.7398 48.2387H7.05432C3.67285 48.2387 0.90625 45.4573 0.90625 42.0573V38.9186L6.77469 35.8458L13.3217 39.7524L23.6496 28.5837L30.944 36.461L36.0171 31.1098L48.888 38.6834H48.8879Z" fill="white"/>
<path fill-rule="evenodd" clip-rule="evenodd" d="M48.8878 36.7818V37.8615L33.4061 22.2931L29.8987 29.2282L23.0509 17.5823L12.2134 34.6271L8.93067 29.1386L0.90625 37.8152V36.6126L9.49353 26.0067L12.7489 30.2742L23.075 14.342L29.601 23.7457L32.6803 18.6061L48.8878 36.7818ZM7.05438 0H42.7398C46.1212 0 48.8878 2.78151 48.8878 6.18136V31.8893L32.6803 15.1508L29.601 18.7528L23.075 11.463L12.7489 25.2817L9.49353 22.9365L0.90625 31.844V6.18136C0.90625 2.78151 3.67297 0 7.05432 0L7.05438 0Z" fill="url(#paint0_linear_400_52)"/>
<defs>
<linearGradient id="paint0_linear_400_52" x1="24.8971" y1="37.8615" x2="24.8971" y2="0" gradientUnits="userSpaceOnUse">
<stop stop-color="#7DC6E8"/>
<stop offset="1" stop-color="#C4E6FA"/>
</linearGradient>
</defs>
</svg>
