<svg width="38" height="38" viewBox="0 0 38 38" fill="none" xmlns="http://www.w3.org/2000/svg">
<rect width="38" height="38" rx="19" fill="#FF5000"/>
<path fill-rule="evenodd" clip-rule="evenodd" d="M13.99 11.8905C17.3257 11.6296 20.6766 11.6296 24.0123 11.8905L26.253 12.0659C27.501 12.1635 28.5221 13.0989 28.7284 14.3337C29.2446 17.4232 29.2446 20.5769 28.7284 23.6664C28.5221 24.9012 27.501 25.8366 26.253 25.9342L24.0123 26.1095C20.6766 26.3705 17.3256 26.3705 13.99 26.1095L11.7493 25.9342C10.5012 25.8366 9.48018 24.9012 9.27387 23.6664C8.75767 20.5769 8.75767 17.4232 9.27387 14.3337C9.48018 13.0989 10.5012 12.1635 11.7493 12.0659L13.99 11.8905ZM17.0011 21.4702V16.5299C17.0011 16.2967 17.2555 16.1527 17.4554 16.2726L21.5724 18.7428C21.7666 18.8593 21.7666 19.1408 21.5724 19.2573L17.4554 21.7274C17.2555 21.8474 17.0011 21.7034 17.0011 21.4702Z" fill="white"/>
</svg>
