<svg width="49" height="48" viewBox="0 0 49 48" fill="none" xmlns="http://www.w3.org/2000/svg">
<path fill-rule="evenodd" clip-rule="evenodd" d="M14.7273 6.4472C15.549 6.4472 16.2151 7.11332 16.2151 7.93502V11.2432C21.8246 10.7436 27.4674 10.7436 33.077 11.2432V7.93502C33.077 7.11332 33.7431 6.4472 34.5648 6.4472C35.3865 6.4472 36.0526 7.11332 36.0526 7.93502V11.5384C39.0144 11.9572 41.3543 14.2998 41.7504 17.2881L41.9221 18.5834C42.6442 24.0314 42.5819 29.5548 41.7369 34.9851C41.3183 37.6752 39.1329 39.7414 36.4236 40.0086L34.057 40.242C27.7981 40.8592 21.4938 40.8592 15.235 40.242L12.8683 40.0086C10.1591 39.7414 7.97364 37.6752 7.55505 34.9851C6.71005 29.5548 6.64768 24.0314 7.36984 18.5834L7.54153 17.2881C7.93764 14.2998 10.2776 11.9571 13.2395 11.5384V7.93502C13.2395 7.11332 13.9056 6.4472 14.7273 6.4472ZM15.6104 14.2886C21.6195 13.696 27.6724 13.696 33.6816 14.2886L35.4778 14.4657C37.1972 14.6353 38.5735 15.9663 38.8006 17.6791L38.9723 18.9744C39.0323 19.4269 39.0865 19.88 39.1351 20.3335H10.1568C10.2054 19.88 10.2597 19.4269 10.3197 18.9744L10.4914 17.6791C10.7184 15.9663 12.0948 14.6353 13.8142 14.4657L15.6104 14.2886ZM9.92031 23.3091C9.72555 27.0546 9.91743 30.814 10.4953 34.5276C10.7052 35.8769 11.8014 36.9133 13.1604 37.0473L15.527 37.2807C21.5916 37.8788 27.7003 37.8788 33.7649 37.2807L36.1316 37.0473C37.4905 36.9133 38.5867 35.8769 38.7966 34.5276C39.3745 30.814 39.5664 27.0546 39.3716 23.3091H9.92031Z" fill="white"/>
<circle cx="16.2124" cy="27.2766" r="1.48781" fill="white"/>
<circle cx="16.2124" cy="33.2278" r="1.48781" fill="white"/>
<circle cx="22.1636" cy="27.2766" r="1.48781" fill="white"/>
<circle cx="22.1636" cy="33.2278" r="1.48781" fill="white"/>
<circle cx="28.1148" cy="27.2766" r="1.48781" fill="white"/>
<circle cx="28.1148" cy="33.2278" r="1.48781" fill="white"/>
<circle cx="34.0659" cy="27.2766" r="1.48781" fill="white"/>
</svg>
