<svg width="48" height="48" viewBox="0 0 48 48" fill="none" xmlns="http://www.w3.org/2000/svg">
<path d="M25.2929 13.8863C25.2929 13.0646 24.6268 12.3985 23.8051 12.3985C22.9834 12.3985 22.3173 13.0646 22.3173 13.8863V23.805C22.3173 24.318 22.5815 24.7948 23.0165 25.0667L28.9678 28.7862C29.6646 29.2217 30.5825 29.0099 31.018 28.3131C31.4535 27.6163 31.2417 26.6984 30.5449 26.2629L25.2929 22.9804V13.8863Z" fill="white"/>
<path fill-rule="evenodd" clip-rule="evenodd" d="M23.8051 6.4472C14.2186 6.4472 6.44727 14.2186 6.44727 23.805C6.44727 33.3915 14.2186 41.1628 23.8051 41.1628C33.3915 41.1628 41.1629 33.3915 41.1629 23.805C41.1629 14.2186 33.3915 6.4472 23.8051 6.4472ZM9.42289 23.805C9.42289 15.862 15.862 9.42283 23.8051 9.42283C31.7481 9.42283 38.1873 15.862 38.1873 23.805C38.1873 31.7481 31.7481 38.1872 23.8051 38.1872C15.862 38.1872 9.42289 31.7481 9.42289 23.805Z" fill="white"/>
</svg>
