<svg width="38" height="38" viewBox="0 0 38 38" fill="none" xmlns="http://www.w3.org/2000/svg">
<rect width="38" height="38" rx="19" fill="white"/>
<path fill-rule="evenodd" clip-rule="evenodd" d="M25.4823 26.7901L25.483 26.7884L25.5004 26.7449L28.4992 11.6258V11.5767C28.4992 11.2 28.36 10.8711 28.0571 10.6739C27.792 10.5012 27.4873 10.4889 27.2736 10.5051C27.0476 10.5223 26.8344 10.5787 26.6869 10.6257C26.611 10.6498 26.5475 10.6731 26.502 10.6907C26.4792 10.6995 26.4608 10.707 26.4473 10.7126L26.4341 10.7182L9.71429 17.2771L9.70968 17.2788C9.70065 17.2821 9.68871 17.2865 9.67429 17.2921C9.64553 17.3033 9.60639 17.3193 9.56041 17.3402C9.47013 17.3811 9.3454 17.4442 9.21889 17.5309C9.00404 17.678 8.59493 18.0263 8.66401 18.5785C8.72123 19.036 9.03653 19.3265 9.2491 19.4769C9.36305 19.5575 9.47206 19.6156 9.55189 19.6536C9.59234 19.6729 9.6267 19.6876 9.65228 19.6981C9.66511 19.7033 9.67584 19.7075 9.68414 19.7106L9.69476 19.7146L9.70156 19.7171L12.6268 20.7019C12.6169 20.8854 12.6351 21.0726 12.6838 21.2572L14.1491 26.8156C14.3228 27.4747 14.919 27.9337 15.6006 27.9333C16.2115 27.9328 16.7534 27.5632 16.9836 27.0118L19.2712 24.5657L23.2002 27.578L23.2561 27.6023C23.6131 27.7581 23.9466 27.8075 24.2515 27.7658C24.556 27.7242 24.798 27.5965 24.9797 27.4511C25.1586 27.308 25.2812 27.1465 25.3582 27.0249C25.3974 26.9631 25.4266 26.9088 25.4469 26.868C25.457 26.8475 25.465 26.8301 25.4711 26.8166L25.4786 26.7991L25.4813 26.7927L25.4823 26.7901ZM14.1342 20.8748C14.1009 20.7485 14.1532 20.6151 14.2635 20.5451L24.1855 14.2442C24.1855 14.2442 24.7691 13.8899 24.7482 14.2442C24.7482 14.2442 24.8524 14.3068 24.5396 14.5985C24.243 14.8756 17.468 21.4166 16.7824 22.0785C16.7429 22.1167 16.7192 22.1605 16.7053 22.2137L15.5995 26.4332L14.1342 20.8748Z" fill="#262B2E"/>
</svg>
