<svg width="35" height="42" viewBox="0 0 35 42" fill="none" xmlns="http://www.w3.org/2000/svg">
<path fill-rule="evenodd" clip-rule="evenodd" d="M8.38238 17.8375C8.38238 12.6334 12.6011 8.41468 17.8052 8.41468C23.0093 8.41468 27.228 12.6334 27.228 17.8375C27.228 23.0416 23.0093 27.2603 17.8052 27.2603C12.6011 27.2603 8.38238 23.0416 8.38238 17.8375ZM17.8052 11.3903C14.2445 11.3903 11.358 14.2768 11.358 17.8375C11.358 21.3982 14.2445 24.2847 17.8052 24.2847C21.3659 24.2847 24.2524 21.3982 24.2524 17.8375C24.2524 14.2768 21.3659 11.3903 17.8052 11.3903Z" fill="white"/>
<path fill-rule="evenodd" clip-rule="evenodd" d="M0.991644 15.5698C1.69454 7.0424 8.82047 0.479675 17.3768 0.479675H18.2336C26.7899 0.479675 33.9158 7.0424 34.6187 15.5698C34.9963 20.1505 33.5814 24.6991 30.6719 28.2573L21.1636 39.8856C19.4279 42.0084 16.1825 42.0084 14.4467 39.8856L4.93851 28.2573C2.02903 24.6991 0.614059 20.1505 0.991644 15.5698ZM17.3768 3.4553C10.3691 3.4553 4.53289 8.83023 3.95721 15.8142C3.64296 19.6267 4.8206 23.4123 7.24209 26.3737L16.7503 38.002C17.2955 38.6688 18.3149 38.6688 18.8601 38.002L28.3683 26.3737C30.7898 23.4123 31.9674 19.6267 31.6532 15.8142C31.0775 8.83022 25.2413 3.4553 18.2336 3.4553H17.3768Z" fill="white"/>
</svg>
