<svg width="38" height="38" viewBox="0 0 38 38" fill="none" xmlns="http://www.w3.org/2000/svg">
<rect width="38" height="38" rx="19" fill="#FF5000"/>
<path d="M28.5035 25.381H26.222C25.3588 25.381 25.0992 24.682 23.5511 23.1339C22.2 21.8313 21.6292 21.6686 21.2868 21.6686C20.8145 21.6686 20.6847 21.7984 20.6847 22.4505V24.5021C20.6847 25.0573 20.5049 25.3825 19.0553 25.3825C17.6485 25.288 16.2842 24.8606 15.0749 24.1355C13.8656 23.4104 12.8459 22.4084 12.0997 21.212C10.3283 19.0071 9.0957 16.4193 8.5 13.6544C8.5 13.312 8.62979 13.0023 9.28187 13.0023H11.5618C12.1482 13.0023 12.3593 13.2635 12.5892 13.8655C13.6963 17.1244 15.5853 19.9579 16.3516 19.9579C16.6456 19.9579 16.7738 19.8281 16.7738 19.0947V15.7389C16.6768 14.208 15.8637 14.0782 15.8637 13.5246C15.8741 13.3786 15.941 13.2424 16.0502 13.1449C16.1594 13.0474 16.3023 12.9963 16.4485 13.0023H20.0326C20.5221 13.0023 20.6847 13.2463 20.6847 13.8327V18.3613C20.6847 18.8508 20.8958 19.0134 21.0428 19.0134C21.3368 19.0134 21.5635 18.8508 22.1015 18.3128C23.2569 16.9038 24.2009 15.334 24.9037 13.6529C24.9756 13.4509 25.1115 13.278 25.2908 13.1606C25.4701 13.0431 25.6829 12.9876 25.8967 13.0023H28.1782C28.8616 13.0023 29.007 13.3448 28.8616 13.8327C28.032 15.6911 27.0055 17.4552 25.7997 19.0947C25.5542 19.47 25.4557 19.6655 25.7997 20.1049C26.0265 20.4473 26.8256 21.1151 27.3635 21.7499C28.1452 22.5297 28.7944 23.4319 29.2853 24.4208C29.4808 25.0557 29.154 25.381 28.5035 25.381Z" fill="white"/>
</svg>
